<svg xmlns:xlink="http://www.w3.org/1999/xlink" xmlns="http://www.w3.org/2000/svg" style="width:100%;height:100%" viewBox="0 0 92 38" preserveAspectRatio="none" width="92" height="38"><defs><svg width="92" height="38" viewBox="0 0 92 38" fill="none" id="svg-2034135157_3600">
<g opacity="0.4" clip-path="url(#svg-2034135157_3600_clip0_271_1883)" fill="none">
<path d="M0.0999756 34.848H17.9489V37.4031H0.0999756V34.848Z" fill="#FFFFFF"></path>
<path d="M0.0999756 29.9466H17.9489V32.5107H0.0999756V29.9466Z" fill="#FFFFFF"></path>
<path d="M5.19177 25.056H12.8478V27.6202H5.19177V25.056Z" fill="#FFFFFF"></path>
<path d="M5.19177 20.1634H12.8478V22.7276H5.19177V20.1634Z" fill="#FFFFFF"></path>
<path d="M5.19177 15.2709H12.8478V17.835H5.19177V15.2709Z" fill="#FFFFFF"></path>
<path d="M5.19177 10.3705H12.8478V12.9346H5.19177V10.3705Z" fill="#FFFFFF"></path>
<path d="M17.9489 5.47984H0.0999756V8.044H17.9489V5.47984Z" fill="#FFFFFF"></path>
<path d="M17.9489 0.587265H0.0999756V3.15142H17.9489V0.587265Z" fill="#FFFFFF"></path>
<path d="M20.4945 32.5108H47.9454C48.409 31.7198 48.7546 30.8559 48.9638 29.9466H20.4945V32.5108Z" fill="#FFFFFF"></path>
<path d="M45.8091 20.1634H25.5961V22.7276H47.946C47.364 21.7455 46.6456 20.8818 45.8091 20.1634Z" fill="#FFFFFF"></path>
<path d="M25.5961 15.2709V17.835H45.8091C46.6639 17.1167 47.3821 16.2528 47.946 15.2709H25.5961Z" fill="#FFFFFF"></path>
<path d="M47.9455 5.47984H20.4945V8.044H48.9638C48.7274 7.13472 48.3819 6.27098 47.9455 5.47984Z" fill="#FFFFFF"></path>
<path d="M39.5074 0.587265H20.4945V3.15142H46.0632C44.3538 1.56925 42.0352 0.587265 39.5074 0.587265Z" fill="#FFFFFF"></path>
<path d="M33.243 10.3705H25.5961V12.9346H33.243V10.3705Z" fill="#FFFFFF"></path>
<path d="M40.8969 12.9346H48.8984C49.1257 12.1163 49.2439 11.2525 49.2439 10.3705H40.8969V12.9346Z" fill="#FFFFFF"></path>
<path d="M25.5961 25.056H33.243V27.6202H25.5961V25.056Z" fill="#FFFFFF"></path>
<path d="M40.8969 25.056V27.6202H49.2439C49.2439 26.7382 49.1257 25.8744 48.8984 25.056H40.8969Z" fill="#FFFFFF"></path>
<path d="M20.4945 37.3849L39.5074 37.4122C42.0534 37.4122 44.3538 36.4302 46.0723 34.848H20.4945V37.3849Z" fill="#FFFFFF"></path>
<path d="M51.1019 34.848H63.8498V37.4031H51.1019V34.848Z" fill="#FFFFFF"></path>
<path d="M51.1019 29.9466H63.8498V32.5107H51.1019V29.9466Z" fill="#FFFFFF"></path>
<path d="M56.1937 25.056H63.8498V27.6202H56.1937V25.056Z" fill="#FFFFFF"></path>
<path d="M56.1937 20.1634H63.8498V22.7276H56.1937V20.1634Z" fill="#FFFFFF"></path>
<path d="M67.3961 5.47984H51.1019V8.044H68.278L67.3961 5.47984Z" fill="#FFFFFF"></path>
<path d="M65.7047 0.587265H51.1019V3.15142H66.5868L65.7047 0.587265Z" fill="#FFFFFF"></path>
<path d="M79.1429 34.848H91.9V37.4031H79.1429V34.848Z" fill="#FFFFFF"></path>
<path d="M79.1429 29.9466H91.9V32.5107H79.1429V29.9466Z" fill="#FFFFFF"></path>
<path d="M79.1429 25.056H86.799V27.6202H79.1429V25.056Z" fill="#FFFFFF"></path>
<path d="M79.1429 20.1634H86.799V22.7276H79.1429V20.1634Z" fill="#FFFFFF"></path>
<path d="M79.1437 17.835H86.7998V15.2709H79.1437H72.2151L71.4968 17.3441L70.7785 15.2709H63.8498H56.1937V17.835H63.8498V15.48L64.6591 17.835H78.3345L79.1437 15.48V17.835Z" fill="#FFFFFF"></path>
<path d="M86.7993 10.3703H73.9059L73.0239 12.9344H86.7993V10.3703Z" fill="#FFFFFF"></path>
<path d="M77.2984 0.587265L76.4164 3.15142H91.9013V0.587265H77.2984Z" fill="#FFFFFF"></path>
<path d="M71.4976 37.3849L72.3795 34.848H70.6156L71.4976 37.3849Z" fill="#FFFFFF"></path>
<path d="M69.8049 32.5107H73.1873L74.0966 29.9466H68.9047L69.8049 32.5107Z" fill="#FFFFFF"></path>
<path d="M68.0881 27.6202H74.9076L75.8078 25.056H67.1879L68.0881 27.6202Z" fill="#FFFFFF"></path>
<path d="M66.3765 22.7276H76.624L77.4969 20.1634H65.4945L66.3765 22.7276Z" fill="#FFFFFF"></path>
<path d="M56.1937 12.9346H69.9691L69.0872 10.3705H56.1937V12.9346Z" fill="#FFFFFF"></path>
<path d="M74.725 8.044H91.9011V5.47984H75.5979L74.725 8.044Z" fill="#FFFFFF"></path>
</g>
<defs>
<clipPath id="svg-2034135157_3600_clip0_271_1883">
<rect width="91.8" height="36.8255" fill="white" transform="translate(0.0999756 0.587265)"></rect>
</clipPath>
</defs>
</svg></defs><use href="#svg-2034135157_3600"></use></svg>