<svg xmlns:xlink="http://www.w3.org/1999/xlink" xmlns="http://www.w3.org/2000/svg" style="width:100%;height:100%" viewBox="0 0 146 34" preserveAspectRatio="none" width="146" height="34"><defs><svg width="146" height="34" viewBox="0 0 146 34" fill="none" id="svg-599588716_8119">
<g opacity="0.4" fill="none">
<path fill-rule="evenodd" clip-rule="evenodd" d="M34.7773 0H0.777344V34H34.7773V0ZM10.7524 8.27297L16.6443 19.2662L16.6497 26.4081H18.916V19.3811L24.8078 8.27297H22.3146L18.9146 15.1865L18.9093 15.1945C18.684 15.5323 18.4597 15.8689 18.347 16.2068C18.2824 16.4676 18.1797 16.6535 18.0825 16.8294C18.0109 16.9587 17.9424 17.0827 17.8943 17.227C17.8375 17.1709 17.8091 17.0859 17.7807 17.0008C17.7524 16.916 17.724 16.831 17.6673 16.7743C17.6105 16.6608 17.5822 16.5757 17.5538 16.4905C17.5254 16.4054 17.497 16.3203 17.4403 16.2068V16.0932L17.3268 15.9797C17.2833 15.8932 17.2564 15.8232 17.2335 15.7634C17.1966 15.667 17.1698 15.597 17.0997 15.527C16.9862 15.4135 16.8727 15.3 16.8727 15.1865L13.4727 8.27297H10.7524Z" fill="#FFFFFF"></path>
<path d="M48.3883 11.9527C49.8207 11.9527 51.064 12.3351 52.0207 13.1013L51.0653 14.25C50.2045 13.677 49.3451 13.2946 48.2951 13.2946C46.6694 13.2946 45.4275 14.1554 44.7586 15.7811C44.3761 16.7365 44.1856 17.9797 44.1856 19.6054C44.1856 20.8486 44.3748 21.9 44.664 22.6649C45.4288 24.4811 46.6721 25.3405 48.5829 25.3405C49.6343 25.3405 50.591 25.0541 51.4505 24.3851L52.4059 25.6284C51.1626 26.3932 49.8383 26.777 48.3924 26.777C46.6721 26.777 45.2383 26.1081 44.091 24.6743C42.9424 23.323 42.4653 21.5203 42.4653 19.323C42.4653 17.1257 43.0383 15.4041 44.1856 13.9716C45.237 12.7284 46.6721 11.9635 48.3924 11.9635L48.3883 11.9527ZM53.8369 21.4162C53.8369 19.6959 54.2194 18.3568 55.0802 17.4027C55.941 16.4486 56.9924 15.873 58.3302 15.873C59.8599 15.873 61.1005 16.4459 61.9626 17.6892C62.6315 18.6446 62.918 19.9838 62.918 21.6081C62.918 23.5203 62.3451 25.05 61.2924 26.0054C60.5008 26.7008 59.4782 27.0757 58.4248 27.0568C56.9924 27.0568 55.9383 26.5784 55.0788 25.527C54.218 24.5716 53.8369 23.1378 53.8369 21.4162ZM60.5288 18.6459C60.0505 17.7851 59.3802 17.2946 58.3302 17.2946C57.2802 17.2946 56.6099 17.677 56.1315 18.4432C55.7491 19.0162 55.6532 19.973 55.6532 21.2135C55.6532 22.8392 55.8424 23.9838 56.3221 24.6554C56.8018 25.327 57.4707 25.7068 58.4248 25.7068C59.5734 25.7068 60.337 25.1338 60.7194 24.0811C60.9086 23.5081 61.0059 22.7297 61.0059 21.7865C61.1005 20.3541 60.9113 19.3 60.5275 18.6324L60.5288 18.6459ZM65.9748 18.8351C65.9748 17.7838 65.8802 16.923 65.5924 16.2676L67.218 15.8851C67.5045 16.3635 67.6005 16.9365 67.6005 17.4149V17.5095C67.9829 17.127 68.3653 16.7446 68.9518 16.4581C69.6207 16.0757 70.1951 15.8851 70.768 15.8851C71.6288 15.8851 72.3937 16.2676 72.8707 16.9365C72.9653 17.1257 73.1572 17.4149 73.2532 17.6054C74.4018 16.4568 75.4518 15.8851 76.5991 15.8851C77.364 15.8851 78.0315 16.1716 78.5113 16.65C78.9897 17.223 79.2761 17.8932 79.2761 18.6581V26.5905H77.5302V18.7527C77.5302 17.7014 77.0518 17.223 76.1788 17.223C75.7005 17.223 75.1275 17.4122 74.6491 17.7959C74.4599 17.9851 74.0761 18.2743 73.5978 18.6568L73.4086 18.8459V26.5892H71.5924V19.1216C71.5924 18.4527 71.4978 17.973 71.3059 17.7703C71.0194 17.4838 70.7329 17.3878 70.2545 17.3878C69.4897 17.3878 68.6288 17.8662 67.5788 18.8203V26.6581H65.9761L65.9748 18.8351ZM82.2275 11.5703L83.9478 11.1878C84.137 11.9527 84.2342 12.8135 84.2342 13.8635V17.4C85.1897 16.4446 86.2424 15.9676 87.2937 15.9676C88.5369 15.9676 89.5883 16.4459 90.2572 17.4C91.0221 18.3554 91.4059 19.6946 91.4059 21.3189C91.4059 23.0392 91.0234 24.3784 90.2572 25.4297C89.491 26.4811 88.441 26.9595 87.1978 26.9595C86.6324 26.97 86.0734 26.8385 85.5721 26.577C84.9991 26.2905 84.6167 26.0041 84.3288 25.6216L84.0424 26.7703H82.4167C82.6059 26.2919 82.7032 25.4189 82.7032 24.0946V14.0541C82.6086 12.9054 82.514 12.0459 82.2248 11.5676L82.2275 11.5703ZM84.9978 18.0568C84.7113 18.2459 84.4248 18.5351 84.2329 18.8216V24.2973C84.9018 25.1581 85.7626 25.5405 86.8005 25.5405C87.6613 25.5405 88.3302 25.254 88.7126 24.5851C89.191 23.8203 89.4775 22.7689 89.4775 21.2392C89.4775 19.8878 89.2883 18.9446 88.8086 18.3716C88.4261 17.7986 87.7572 17.5108 86.8005 17.5108C86.2275 17.4162 85.5572 17.6054 84.9842 18.0838L84.9978 18.0568ZM93.8896 12.9216C93.8896 12.5392 93.9842 12.2527 94.2721 11.9662C94.5599 11.6797 94.8451 11.5838 95.2275 11.5838C95.6099 11.5838 95.8964 11.6784 96.1829 11.9662C96.4694 12.2541 96.5653 12.5392 96.5653 12.9216C96.5653 13.3041 96.4707 13.5905 96.1829 13.877C95.895 14.1635 95.6099 14.2595 95.2275 14.2595C94.8451 14.2595 94.5586 14.1649 94.2721 13.877C93.9856 13.5892 93.8896 13.3041 93.8896 12.9216ZM94.2869 26.6757V16.1622L96.0072 15.8757V26.6784L94.2869 26.6757ZM99.7221 18.8351C99.7221 18.0703 99.7221 17.5919 99.6275 17.4027C99.6275 17.1162 99.4383 16.8297 99.2451 16.3513L100.871 15.873C101.132 16.3743 101.264 16.9333 101.253 17.4986C102.305 16.4473 103.452 15.873 104.599 15.873C105.172 15.873 105.65 15.9676 106.129 16.2554C106.607 16.5432 106.99 16.9243 107.18 17.4041C107.369 17.7865 107.467 18.1689 107.467 18.6473V26.677H105.841V19.5081C105.841 18.6473 105.746 18.0757 105.459 17.7878C105.31 17.6347 105.131 17.5134 104.934 17.4312C104.737 17.3489 104.525 17.3075 104.311 17.3095C103.929 17.3095 103.356 17.4986 102.782 17.7878C102.25 18.0592 101.766 18.4142 101.348 18.8392V26.677H99.7221V18.8351ZM111.29 18.4527L110.429 17.3041C111.861 16.3486 113.296 15.8716 114.826 15.8716C116.356 15.8716 117.313 16.4446 117.79 17.4973C117.979 17.8797 117.979 18.4527 117.979 19.3135V19.8865L117.884 23.3284V23.8068C117.884 24.3797 117.884 24.7622 117.979 25.05C118.073 25.4324 118.361 25.7189 118.744 25.9108L117.883 27.0595C117.118 26.773 116.64 26.2946 116.45 25.5297C115.495 26.4851 114.442 26.9622 113.391 26.9622C112.34 26.9622 111.479 26.6757 110.823 26.1013C110.25 25.623 109.963 24.8581 109.963 23.9027C109.937 23.3555 110.057 22.8114 110.308 22.3249C110.56 21.8384 110.935 21.4267 111.396 21.1311C112.352 20.4622 113.786 20.1757 115.507 20.1757H116.272V19.4108C116.272 18.55 116.177 17.9784 115.89 17.7851C115.708 17.5893 115.486 17.4362 115.238 17.3371C114.99 17.238 114.724 17.1953 114.457 17.2122C113.884 17.2122 113.214 17.4013 112.449 17.6905L111.3 18.4554L111.29 18.4527ZM116.357 24.0932L116.452 21.323H115.591C114.061 21.323 113.105 21.6095 112.532 22.1838C112.149 22.5662 111.959 23.1392 111.959 23.9041C111.959 25.1473 112.532 25.8162 113.775 25.8162C114.317 25.7851 114.842 25.6092 115.293 25.3066C115.745 25.0041 116.107 24.586 116.342 24.0959L116.357 24.0932ZM123.43 16.1581H126.106L125.627 17.5095H123.429V24.2973C123.429 24.8703 123.523 25.2527 123.715 25.5405C123.905 25.7297 124.288 25.923 124.767 25.923C125.149 25.923 125.532 25.8284 125.818 25.7338L126.007 26.7851C125.434 27.0716 124.859 27.1676 124.191 27.1676C122.565 27.1676 121.802 26.4027 121.802 24.7784V17.5135H120.368V16.1622H121.719V15.973C121.719 15.7838 121.814 15.0176 121.909 13.7743V13.4865L123.629 13.1041C123.44 14.2527 123.44 15.3027 123.44 16.1635L123.43 16.1581ZM127.827 21.4149C127.827 19.6946 128.21 18.3554 129.071 17.4014C129.836 16.4459 130.983 15.8716 132.321 15.8716C133.85 15.8716 135.091 16.4446 135.953 17.6878C136.622 18.6432 136.909 19.9824 136.909 21.6068C136.909 23.5189 136.336 25.0486 135.283 26.004C134.491 26.6994 133.469 27.0743 132.415 27.0554C130.983 27.0554 129.929 26.577 129.069 25.5257C128.305 24.5703 127.827 23.1365 127.827 21.4149ZM134.615 18.6446C134.137 17.7838 133.467 17.2932 132.417 17.2932C131.367 17.2932 130.696 17.6757 130.218 18.4419C129.836 19.0149 129.74 19.9716 129.74 21.2122C129.74 22.8378 129.929 23.9824 130.409 24.6541C130.888 25.3257 131.557 25.7054 132.511 25.7054C133.66 25.7054 134.423 25.1324 134.806 24.0797C134.995 23.5068 135.092 22.7284 135.092 21.7851C135.092 20.3527 134.903 19.2986 134.614 18.6311L134.615 18.6446ZM140.061 18.6419C140.061 17.6865 139.967 16.9216 139.679 16.3473L141.304 15.8689C141.566 16.3703 141.698 16.9292 141.687 17.4946V17.6838C142.548 16.5351 143.503 15.9635 144.65 15.9635C144.84 15.9635 145.033 15.9635 145.223 16.0581L144.555 17.8743C144.365 17.7797 144.172 17.7797 144.076 17.7797C143.694 17.7797 143.215 17.8743 142.833 18.1622C142.45 18.45 142.068 18.7351 141.877 19.1176C141.752 19.487 141.687 19.8746 141.687 20.2649V26.8595H140.061V18.6419Z" fill="#FFFFFF"></path>
</g>
</svg></defs><use href="#svg-599588716_8119"></use></svg>