<svg xmlns:xlink="http://www.w3.org/1999/xlink" xmlns="http://www.w3.org/2000/svg" style="width:100%;height:100%" viewBox="0 0 93 47" preserveAspectRatio="none" width="93" height="47"><defs><svg width="93" height="47" viewBox="0 0 93 47" fill="none" id="svg-1202660194_5834">
<path d="M19.3201 1.02721C19.5738 0.773694 19.9177 0.631319 20.2763 0.631351H25.4986C25.7665 0.631444 26.0284 0.710999 26.251 0.859961C26.4737 1.00892 26.6474 1.2206 26.7498 1.46825C26.8523 1.7159 26.8791 1.98839 26.8268 2.25129C26.7747 2.51419 26.6457 2.7557 26.4564 2.94528L19.0667 10.3406L11.6771 17.7359C11.5512 17.8617 11.4513 18.0111 11.3832 18.1754C11.3151 18.3399 11.28 18.5162 11.28 18.6942C11.28 18.8722 11.3151 19.0484 11.3832 19.2129C11.4513 19.3774 11.5512 19.5267 11.6771 19.6524L26.4905 34.4786C26.6759 34.6658 26.802 34.9038 26.8526 35.1624C26.9034 35.4211 26.8765 35.689 26.7756 35.9325C26.6747 36.1759 26.5041 36.3841 26.2852 36.5307C26.0664 36.6775 25.809 36.7562 25.5457 36.757H20.2806C19.9186 36.757 19.5716 36.613 19.3158 36.3569L8.73863 25.7726C8.54691 25.5813 8.30284 25.4511 8.03724 25.3985C7.77164 25.3459 7.49641 25.3732 7.24629 25.4768C6.99616 25.5807 6.78235 25.7561 6.63184 25.9813C6.48134 26.2067 6.40088 26.4715 6.40064 26.7424V35.3887C6.40082 35.5682 6.36564 35.7462 6.29706 35.9122C6.2285 36.0782 6.12791 36.229 6.00103 36.3562C5.87415 36.4832 5.72351 36.5841 5.55766 36.6528C5.39183 36.7216 5.21408 36.757 5.03456 36.757H1.35469C0.995406 36.757 0.650835 36.6141 0.396781 36.36C0.142726 36.1057 0 35.761 0 35.4015V1.99834C0 1.63579 0.143926 1.2881 0.400115 1.03173C0.656304 0.775373 1.00377 0.631351 1.36608 0.631351H5.0673C5.24264 0.630976 5.41632 0.665211 5.57841 0.732095C5.74052 0.798979 5.88785 0.8972 6.01195 1.02113C6.13606 1.14507 6.23454 1.29228 6.30173 1.45434C6.36891 1.61641 6.40349 1.79014 6.40349 1.96559V10.7414C6.4034 11.0054 6.48167 11.2635 6.62838 11.4829C6.77508 11.7024 6.98361 11.8733 7.2275 11.9739C7.47141 12.0746 7.73969 12.1006 7.99834 12.0484C8.25698 11.9963 8.49433 11.8685 8.68028 11.6812L19.3201 1.02721Z" fill="#FFFFFF"></path>
<path fill-rule="evenodd" clip-rule="evenodd" d="M28.9238 8.2507C30.9879 6.87084 33.4146 6.13449 35.8969 6.13477C39.2243 6.13891 42.4141 7.46349 44.7667 9.81795C47.1193 12.1724 48.4426 15.3645 48.4464 18.6941C48.4464 21.1781 47.7102 23.6063 46.3311 25.6717C44.9519 27.737 42.9916 29.3468 40.6982 30.2974C38.4047 31.2479 35.8812 31.4965 33.4464 31.0119C31.0118 30.5272 28.7754 29.3308 27.0203 27.5742C25.265 25.8177 24.0698 23.5796 23.5857 21.1433C23.1016 18.707 23.3503 16.1817 24.3004 13.8868C25.2507 11.5919 26.8596 9.63054 28.9238 8.2507ZM32.4796 23.8103C33.4911 24.4865 34.6805 24.8472 35.8969 24.8469C37.5272 24.845 39.09 24.1962 40.2428 23.0427C41.3955 21.8892 42.0439 20.3252 42.0457 18.6941C42.0461 17.4767 41.6855 16.2866 41.0098 15.2743C40.3342 14.262 39.3736 13.473 38.2498 13.007C37.1259 12.541 35.8891 12.419 34.696 12.6565C33.5029 12.8939 32.407 13.4801 31.5467 14.3408C30.6865 15.2016 30.1007 16.2983 29.8635 17.4922C29.6263 18.6863 29.7481 19.9238 30.2139 21.0484C30.6795 22.173 31.468 23.1341 32.4796 23.8103Z" fill="#FFFFFF"></path>
<path fill-rule="evenodd" clip-rule="evenodd" d="M80.4493 6.13477C77.9669 6.13477 75.5404 6.87136 73.4764 8.25138C71.4124 9.63141 69.8038 11.5929 68.8538 13.8878C67.9039 16.1828 67.6554 18.708 68.1396 21.1442C68.6239 23.5804 69.8192 25.8183 71.5745 27.5748C73.3297 29.3311 75.5662 30.5273 78.0008 31.012C80.4354 31.4965 82.9589 31.2479 85.2523 30.2973C87.5456 29.3467 89.5058 27.7369 90.8849 25.6715C92.2641 23.6062 93.0001 21.1779 93.0001 18.6941C92.9963 15.3643 91.6728 12.172 89.3199 9.81746C86.967 7.46296 83.7768 6.13853 80.4493 6.13477ZM80.4493 24.8469C79.2328 24.8469 78.0438 24.486 77.0323 23.8097C76.0209 23.1334 75.2326 22.1721 74.7671 21.0474C74.3017 19.9227 74.18 18.6852 74.4174 17.4915C74.6547 16.2976 75.2406 15.201 76.101 14.3403C76.9613 13.4797 78.0572 12.8937 79.2503 12.6564C80.4435 12.4191 81.6801 12.5411 82.8038 13.0072C83.9276 13.4732 84.8881 14.2622 85.5636 15.2745C86.2393 16.2868 86.5998 17.4767 86.5995 18.6941C86.5979 20.3257 85.9495 21.8901 84.7963 23.0436C83.6433 24.1972 82.0798 24.8458 80.4493 24.8469Z" fill="#FFFFFF"></path>
<path d="M66.7716 25.7826V29.4763C66.7713 29.8335 66.6294 30.1759 66.3771 30.4284C66.1246 30.681 65.7825 30.8229 65.4256 30.8234H50.8996C50.5482 30.8234 50.2112 30.6837 49.9627 30.4351C49.7144 30.1864 49.5747 29.8492 49.5747 29.4976V25.7598C49.5752 25.4039 49.7166 25.0627 49.9684 24.8112C50.2199 24.5598 50.561 24.4184 50.9167 24.4184H53.6076C53.9695 24.4184 54.3166 24.2745 54.5725 24.0184C54.8284 23.7624 54.9722 23.4149 54.9722 23.0529V7.92762C54.9722 7.74836 55.0074 7.57085 55.076 7.40526C55.1446 7.23966 55.2453 7.08922 55.372 6.96252C55.4987 6.83583 55.6491 6.73537 55.8147 6.66691C55.9803 6.59844 56.1577 6.56329 56.3369 6.56348H59.9939C60.36 6.56348 60.7111 6.709 60.97 6.96803C61.2288 7.22707 61.3743 7.57838 61.3743 7.94471V23.0515C61.3741 23.2309 61.4092 23.4085 61.4778 23.5744C61.5462 23.7403 61.6467 23.8909 61.7734 24.0179C61.9003 24.1449 62.0507 24.2455 62.2163 24.3143C62.382 24.3831 62.5596 24.4184 62.7389 24.4184H65.4085C65.77 24.4184 66.1168 24.5622 66.3723 24.818C66.628 25.0738 66.7716 25.4207 66.7716 25.7826Z" fill="#FFFFFF"></path>
<path d="M78.2298 38.4896C78.5864 39.9839 78.9445 41.4771 79.3042 42.9693C79.3281 43.0904 79.3278 43.2148 79.3033 43.3357C79.2789 43.4564 79.2307 43.5712 79.1616 43.6734C79.0926 43.7755 79.004 43.8629 78.9009 43.9304C78.7979 43.9981 78.6824 44.0445 78.5614 44.0672C65.149 47.1359 51.2176 47.1359 37.8053 44.0672C37.6816 44.0442 37.5639 43.9969 37.4587 43.928C37.3537 43.8591 37.2631 43.77 37.1927 43.6659C37.1221 43.5619 37.0729 43.4449 37.0479 43.3217C37.0229 43.1983 37.0224 43.0713 37.0468 42.948C37.4045 41.4575 37.7621 39.9668 38.1198 38.4755C38.1773 38.2448 38.3235 38.0463 38.5266 37.9228C38.7295 37.7993 38.973 37.761 39.2041 37.8161C51.6852 40.6739 64.6501 40.6739 77.1312 37.8161C77.3661 37.7612 77.6131 37.801 77.8188 37.9271C78.0244 38.0531 78.172 38.2553 78.2298 38.4896Z" fill="#FFFFFF"></path>
</svg></defs><use href="#svg-1202660194_5834"></use></svg>