<svg xmlns:xlink="http://www.w3.org/1999/xlink" xmlns="http://www.w3.org/2000/svg" style="width:100%;height:100%" viewBox="0 0 108 38" preserveAspectRatio="none" width="108" height="38"><defs><svg width="108" height="38" viewBox="0 0 108 38" fill="none" id="svg1409801793_3074">
<g opacity="0.4" clip-path="url(#svg1409801793_3074_clip0_271_1873)" fill="none">
<path d="M46.0898 19.4694C46.0898 24.5427 42.1875 28.2811 37.3984 28.2811C32.6094 28.2811 28.707 24.5427 28.707 19.4694C28.707 14.3603 32.6094 10.6576 37.3984 10.6576C42.1875 10.6576 46.0898 14.3603 46.0898 19.4694ZM42.2852 19.4694C42.2852 16.299 40.0234 14.1299 37.3984 14.1299C34.7734 14.1299 32.5117 16.299 32.5117 19.4694C32.5117 22.6079 34.7734 24.8088 37.3984 24.8088C40.0234 24.8088 42.2852 22.6039 42.2852 19.4694Z" fill="#FFFFFF"></path>
<path d="M64.8398 19.4694C64.8398 24.5427 60.9375 28.2811 56.1484 28.2811C51.3594 28.2811 47.457 24.5427 47.457 19.4694C47.457 14.3643 51.3594 10.6576 56.1484 10.6576C60.9375 10.6576 64.8398 14.3603 64.8398 19.4694ZM61.0352 19.4694C61.0352 16.299 58.7734 14.1299 56.1484 14.1299C53.5234 14.1299 51.2617 16.299 51.2617 19.4694C51.2617 22.6079 53.5234 24.8088 56.1484 24.8088C58.7734 24.8088 61.0352 22.6039 61.0352 19.4694Z" fill="#FFFFFF"></path>
<path d="M82.8086 11.19V27.0098C82.8086 33.5173 79.0352 36.1751 74.5742 36.1751C70.375 36.1751 67.8477 33.3186 66.8945 30.9826L70.207 29.5802C70.7969 31.0144 72.2422 32.7068 74.5703 32.7068C77.4258 32.7068 79.1953 30.9151 79.1953 27.5421V26.2748H79.0625C78.2109 27.3435 76.5703 28.2771 74.5 28.2771C70.168 28.2771 66.1992 24.4394 66.1992 19.5011C66.1992 14.5272 70.168 10.6576 74.5 10.6576C76.5664 10.6576 78.207 11.5912 79.0625 12.6281H79.1953V11.194H82.8086V11.19ZM79.4648 19.5011C79.4648 16.3984 77.4297 14.1299 74.8398 14.1299C72.2148 14.1299 70.0156 16.3984 70.0156 19.5011C70.0156 22.5721 72.2148 24.8088 74.8398 24.8088C77.4297 24.8088 79.4648 22.5721 79.4648 19.5011Z" fill="#FFFFFF"></path>
<path d="M88.7656 1.91641V27.7398H85.0547V1.91641H88.7656Z" fill="#FFFFFF"></path>
<path d="M103.227 22.3686L106.18 24.3709C105.227 25.8051 102.93 28.2762 98.9609 28.2762C94.0391 28.2762 90.3633 24.4067 90.3633 19.4645C90.3633 14.2243 94.0703 10.6527 98.5352 10.6527C103.031 10.6527 105.23 14.2918 105.949 16.2584L106.344 17.2595L94.7617 22.1382C95.6484 23.9061 97.0273 24.8079 98.9609 24.8079C100.898 24.8079 102.242 23.8385 103.227 22.3686ZM94.1367 19.1983L101.879 15.9287C101.453 14.8282 100.172 14.0614 98.6641 14.0614C96.7305 14.0614 94.0391 15.7976 94.1367 19.1983Z" fill="#FFFFFF"></path>
<path d="M14.6603 17.1755V13.4371H27.047C27.1681 14.0886 27.2306 14.8593 27.2306 15.6936C27.2306 18.4985 26.4767 21.9667 24.047 24.4378C21.6837 26.9407 18.6642 28.2756 14.6642 28.2756C7.25012 28.2756 1.01575 22.1336 1.01575 14.5932C1.01575 7.05274 7.25012 0.910751 14.6642 0.910751C18.7657 0.910751 21.6876 2.54756 23.8829 4.68096L21.2892 7.31892C19.715 5.81719 17.5822 4.64918 14.6603 4.64918C9.24622 4.64918 5.01184 9.08683 5.01184 14.5932C5.01184 20.0995 9.24622 24.5371 14.6603 24.5371C18.172 24.5371 20.172 23.103 21.4532 21.7999C22.4923 20.7431 23.1759 19.2334 23.4454 17.1715L14.6603 17.1755Z" fill="#FFFFFF"></path>
</g>
<defs>
<clipPath id="svg1409801793_3074_clip0_271_1873">
<rect width="106.25" height="36.55" fill="white" transform="translate(0.875 0.725006)"></rect>
</clipPath>
</defs>
</svg></defs><use href="#svg1409801793_3074"></use></svg>