<svg xmlns:xlink="http://www.w3.org/1999/xlink" xmlns="http://www.w3.org/2000/svg" style="width:100%;height:100%" viewBox="0 0 170 34" preserveAspectRatio="none" width="170" height="34"><defs><svg width="170" height="34" viewBox="0 0 170 34" fill="none" id="svg1317884028_3918">
<path fill-rule="evenodd" clip-rule="evenodd" d="M26.8304 28.3511L29.7488 24.4713C30.0254 24.1036 30.175 23.6559 30.175 23.1957C30.175 22.8739 30.1018 22.5563 29.9609 22.2669L21.7973 5.49781C21.2991 4.47442 20.2606 3.825 19.1224 3.825L14.8776 3.825C13.7394 3.825 12.7009 4.47443 12.2027 5.49781L4.04574 22.2532C3.90048 22.5516 3.825 22.8791 3.825 23.211C3.825 23.6771 3.97386 24.131 4.24988 24.5066L7.00187 28.2516C7.42872 28.8324 7.98484 29.1639 8.52809 29.263C10.6613 29.6521 13.88 30.1264 16.9924 30.1721C20.0983 30.2177 23.3323 29.7135 25.4367 29.293C25.9115 29.1981 26.4182 28.8991 26.8304 28.3511ZM32.8055 26.7707C33.5808 25.7401 34 24.4854 34 23.1957C34 22.2938 33.7948 21.4036 33.4 20.5926L25.2364 3.82356C24.0976 1.4844 21.724 4.55022e-07 19.1224 2.82116e-07L14.8776 0C12.276 -1.72906e-07 9.90236 1.4844 8.76359 3.82356L0.606628 20.579C0.207442 21.3989 0 22.299 0 23.211C0 24.4919 0.40908 25.7394 1.16762 26.7717L3.91961 30.5166C4.87375 31.815 6.2566 32.7368 7.84173 33.0259C10.0684 33.4321 13.5213 33.9466 16.9362 33.9967C20.4317 34.048 23.9669 33.4873 26.1862 33.0438C27.6786 32.7456 28.9722 31.8667 29.8871 30.6505L32.8055 26.7707Z" fill="#FFFFFF"></path>
<path d="M51.4824 25.5H53.2205C53.5258 25.5 53.6198 25.5 53.6903 25.0177L54.207 21.8106H61.6763L62.1931 25.0177C62.2635 25.4518 62.3575 25.5 62.6628 25.5H64.401C64.7063 25.5 64.9412 25.4759 64.8708 25.0177L62.9682 13.4433C62.2635 9.07872 61.5119 8.5 58.3645 8.5H57.4484C54.3479 8.5 53.6198 9.07872 52.9151 13.4433L51.0126 25.0177C50.9421 25.5 51.177 25.5 51.4824 25.5ZM54.5593 19.6163L55.5693 13.4915C56.0156 10.7667 56.5559 10.7426 57.6363 10.7426H58.1766C59.304 10.7426 59.8677 10.7667 60.314 13.4915L61.324 19.6163H54.5593Z" fill="#FFFFFF"></path>
<path d="M74.4327 25.5H76.2188C76.5325 25.5 76.7015 25.3328 76.7015 25.0224V21.0136H81.2873C85.511 21.0136 86.9833 19.1748 86.9833 16.118V13.3956C86.9833 10.3388 85.511 8.5 81.2873 8.5H76.2429C76.2429 8.5 76.2429 8.5 76.2188 8.5H74.4327C74.119 8.5 73.95 8.66717 73.95 8.97762V25.0224C73.95 25.3328 74.119 25.5 74.4327 25.5ZM76.7015 18.7927V10.7209H81.0942C83.2181 10.7209 84.2319 11.4135 84.2319 13.2762V16.2374C84.2319 18.124 83.2181 18.7927 81.0942 18.7927H76.7015Z" fill="#FFFFFF"></path>
<path d="M101.661 25.5H104.015C108.176 25.5 109.65 23.6563 109.65 20.5915V13.4085C109.65 10.3437 108.176 8.5 104.015 8.5H101.661C97.5004 8.5 96.05 10.3437 96.05 13.4085V20.5915C96.05 23.6563 97.5004 25.5 101.661 25.5ZM98.7605 20.5437V13.4563C98.7605 11.6366 99.7591 10.9662 101.851 10.9662H103.825C105.917 10.9662 106.94 11.6366 106.94 13.4563V20.5437C106.94 22.3873 105.917 23.0338 103.825 23.0338H101.851C99.7591 23.0338 98.7605 22.3873 98.7605 20.5437Z" fill="#FFFFFF"></path>
<path d="M124.361 25.5H129.288C129.599 25.5 129.767 25.3312 129.767 25.0177V23.5709C129.767 23.2574 129.599 23.0887 129.288 23.0887H124.553C122.448 23.0887 121.443 22.4376 121.443 20.5085V8.98227C121.443 8.6688 121.276 8.5 120.965 8.5H119.195C118.884 8.5 118.717 8.6688 118.717 8.98227V20.5567C118.717 23.6433 120.176 25.5 124.361 25.5Z" fill="#FFFFFF"></path>
<path d="M143.345 25.5H148.272C148.583 25.5 148.75 25.3312 148.75 25.0177V23.5709C148.75 23.2574 148.583 23.0887 148.272 23.0887H143.536C141.431 23.0887 140.427 22.4376 140.427 20.5085V8.98227C140.427 8.6688 140.259 8.5 139.948 8.5H138.178C137.867 8.5 137.7 8.6688 137.7 8.98227V20.5567C137.7 23.6433 139.159 25.5 143.345 25.5Z" fill="#FFFFFF"></path>
<path d="M162.011 25.5H164.365C168.526 25.5 170 23.6563 170 20.5915V13.4085C170 10.3437 168.526 8.5 164.365 8.5H162.011C157.85 8.5 156.4 10.3437 156.4 13.4085V20.5915C156.4 23.6563 157.85 25.5 162.011 25.5ZM159.11 20.5437V13.4563C159.11 11.6366 160.109 10.9662 162.201 10.9662H164.175C166.267 10.9662 167.29 11.6366 167.29 13.4563V20.5437C167.29 22.3873 166.267 23.0338 164.175 23.0338H162.201C160.109 23.0338 159.11 22.3873 159.11 20.5437Z" fill="#FFFFFF"></path>
</svg></defs><use href="#svg1317884028_3918"></use></svg>