<svg xmlns:xlink="http://www.w3.org/1999/xlink" xmlns="http://www.w3.org/2000/svg" width="120" height="28" viewBox="0 0 120 28" fill="none" id="svg-549381484_2170">
<g opacity="0.4" clip-path="url(#svg-549381484_2170_clip0_271_1926)" fill="none">
<path d="M60.0015 7.20688C55.3397 7.20688 51.9728 10.255 51.9728 14.8172C51.9728 19.3794 55.7581 22.4275 60.4199 22.4275C63.2489 22.4275 65.7192 21.3119 67.2732 19.4392L64.0458 17.5665C63.1891 18.5028 61.8941 19.0407 60.4398 19.0407C58.4077 19.0407 56.6944 17.9849 56.0569 16.2915H67.9107C68.0103 15.8133 68.0501 15.3352 68.0501 14.8172C68.0302 10.2351 64.6833 7.20688 60.0015 7.20688ZM55.9971 13.323C56.535 11.6296 57.9694 10.5737 60.0015 10.5737C62.0336 10.5737 63.468 11.6296 64.0059 13.323H55.9971ZM105.524 7.20688C100.862 7.20688 97.4953 10.255 97.4953 14.8172C97.4953 19.3794 101.281 22.4275 105.942 22.4275C108.771 22.4275 111.242 21.3119 112.796 19.4392L109.568 17.5665C108.712 18.5028 107.417 19.0407 105.962 19.0407C103.93 19.0407 102.217 17.9849 101.579 16.2915H113.433C113.533 15.8133 113.573 15.3352 113.573 14.8172C113.573 10.2351 110.206 7.20688 105.524 7.20688ZM101.54 13.323C102.077 11.6296 103.512 10.5737 105.544 10.5737C107.576 10.5737 109.01 11.6296 109.548 13.323H101.54ZM85.0439 14.8172C85.0439 17.3473 86.6974 19.0407 89.2674 19.0407C91.0006 19.0407 92.3155 18.2438 92.9929 16.9688L96.2402 18.8415C94.9054 21.0728 92.3753 22.4275 89.2674 22.4275C84.5857 22.4275 81.2387 19.3794 81.2387 14.8172C81.2387 10.255 84.6056 7.20688 89.2674 7.20688C92.3753 7.20688 94.8855 8.5616 96.2402 10.7929L92.9929 12.6656C92.3155 11.3706 91.0206 10.5937 89.2674 10.5937C86.6974 10.5737 85.0439 12.2671 85.0439 14.8172ZM119.908 2.54506V21.9892H116.103V2.54506H119.908V2.54506ZM15.9931 0.433289L31.6122 27.4878H0.374023L15.9931 0.433289ZM55.0608 2.54506L43.3465 22.8459L31.6321 2.54506H36.035L43.3664 15.2356L50.6978 2.54506H55.0608ZM79.9637 7.62525V11.7292C79.5453 11.6097 79.0871 11.53 78.609 11.53C76.1585 11.53 74.3854 13.2234 74.3854 15.7536V22.0092H70.5803V7.62525H74.3854V11.5101C74.3854 9.35849 76.8757 7.62525 79.9637 7.62525Z" fill="#FFFFFF"></path>
</g>
<defs>
<clipPath id="svg-549381484_2170_clip0_271_1926">
<rect width="119.893" height="27.0944" fill="white" transform="translate(0.0537109 0.45282)"></rect>
</clipPath>
</defs>
</svg>