<?xml version="1.0" encoding="UTF-8" standalone="no"?><svg xmlns="http://www.w3.org/2000/svg" viewBox="0 0 43 46" width="43" height="46" preserveAspectRatio="xMidYMid slice" style="width: 100%; height: 100%; transform: translate3d(0px, 0px, 0px);"><defs><clipPath id="__lottie_element_11545"><rect width="43" height="46" x="0" y="0"/></clipPath><clipPath id="__lottie_element_11551"><path d="M0,0 L15,0 L15,46 L0,46z"/></clipPath><clipPath id="__lottie_element_11562"><path d="M0,0 L15,0 L15,46 L0,46z"/></clipPath><clipPath id="__lottie_element_11573"><path d="M0,0 L16,0 L16,46 L0,46z"/></clipPath><clipPath id="__lottie_element_11584"><path d="M0,0 L15,0 L15,46 L0,46z"/></clipPath><clipPath id="__lottie_element_11595"><path d="M0,0 L15,0 L15,46 L0,46z"/></clipPath><clipPath id="__lottie_element_11606"><path d="M0,0 L16,0 L16,46 L0,46z"/></clipPath></defs><g clip-path="url(#__lottie_element_11545)"><g clip-path="url(#__lottie_element_11606)" transform="matrix(1,0,0,1,66.93035888671875,0)" opacity="1" style="display: block;"><g transform="matrix(1.333299994468689,0,0,1.333299994468689,0,0)" opacity="1" style="display: block;"><g opacity="1" transform="matrix(1,0,0,1,0,0)"><g opacity="1" transform="matrix(1,0,0,1,0,0)"><path fill="rgb(0,0,0)" fill-opacity="1" d=" M0.5799999833106995,34.04999923706055 C7.039999961853027,31.209999084472656 11.569999694824219,24.65999984741211 11.569999694824219,17.030000686645508 C11.569999694824219,9.390000343322754 7.039999961853027,2.8399999141693115 0.5799999833106995,0 C0.5799999833106995,0 0.5799999833106995,34.04999923706055 0.5799999833106995,34.04999923706055z"/></g></g></g><g transform="matrix(1,0,0,1,0,0)" opacity="1" style="display: block;"><path fill="rgb(0,0,0)" fill-opacity="0" d=" M16,0 C16,0 0,0 0,0 C0,0 0,46 0,46 C0,46 16,46 16,46 C16,46 16,0 16,0z"/></g></g><g clip-path="url(#__lottie_element_11595)" transform="matrix(1,0,0,1,52.93035888671875,0)" opacity="1" style="display: block;"><g transform="matrix(1.333299994468689,0,0,1.333299994468689,0,0)" opacity="1" style="display: block;"><g opacity="1" transform="matrix(1,0,0,1,0,0)"><g opacity="1" transform="matrix(1,0,0,1,0,0)"><path fill="rgb(0,0,0)" fill-opacity="1" d=" M0.20000000298023224,34.04999923706055 C6.659999847412109,31.209999084472656 11.199999809265137,24.65999984741211 11.199999809265137,17.030000686645508 C11.199999809265137,9.390000343322754 6.659999847412109,2.8399999141693115 0.20000000298023224,0 C0.20000000298023224,0 0.20000000298023224,34.04999923706055 0.20000000298023224,34.04999923706055z"/></g></g></g><g transform="matrix(1,0,0,1,0,0)" opacity="1" style="display: block;"><path fill="rgb(0,0,0)" fill-opacity="0" d=" M15,0 C15,0 0,0 0,0 C0,0 0,46 0,46 C0,46 15,46 15,46 C15,46 15,0 15,0z"/></g></g><g clip-path="url(#__lottie_element_11584)" transform="matrix(1,0,0,1,38.93035888671875,0)" opacity="1" style="display: block;"><g transform="matrix(1.333299994468689,0,0,1.333299994468689,0,0)" opacity="1" style="display: block;"><g opacity="1" transform="matrix(1,0,0,1,0,0)"><g opacity="1" transform="matrix(1,0,0,1,0,0)"><g opacity="1" transform="matrix(1,0,0,1,0,0)"><path fill="rgb(0,0,0)" fill-opacity="1" d=" M0,0 C6.460000038146973,2.8399999141693115 10.989999771118164,9.399999618530273 10.989999771118164,17.030000686645508 C10.989999771118164,24.65999984741211 6.460000038146973,31.209999084472656 0,34.04999923706055 C0,34.04999923706055 0,0 0,0z"/></g></g></g></g><g transform="matrix(1,0,0,1,0,0)" opacity="1" style="display: block;"><path fill="rgb(0,0,0)" fill-opacity="0" d=" M15,0 C15,0 0,0 0,0 C0,0 0,46 0,46 C0,46 15,46 15,46 C15,46 15,0 15,0z"/></g></g><g clip-path="url(#__lottie_element_11573)" transform="matrix(1,0,0,1,23.930356979370117,0)" opacity="1" style="display: block;"><g transform="matrix(1.333299994468689,0,0,1.333299994468689,0,0)" opacity="1" style="display: block;"><g opacity="1" transform="matrix(1,0,0,1,0,0)"><g opacity="1" transform="matrix(1,0,0,1,0,0)"><path fill="rgb(0,0,0)" fill-opacity="1" d=" M0.5799999833106995,34.04999923706055 C7.039999961853027,31.209999084472656 11.569999694824219,24.65999984741211 11.569999694824219,17.030000686645508 C11.569999694824219,9.390000343322754 7.039999961853027,2.8399999141693115 0.5799999833106995,0 C0.5799999833106995,0 0.5799999833106995,34.04999923706055 0.5799999833106995,34.04999923706055z"/></g></g></g><g transform="matrix(1,0,0,1,0,0)" opacity="1" style="display: block;"><path fill="rgb(0,0,0)" fill-opacity="0" d=" M16,0 C16,0 0,0 0,0 C0,0 0,46 0,46 C0,46 16,46 16,46 C16,46 16,0 16,0z"/></g></g><g clip-path="url(#__lottie_element_11562)" transform="matrix(1,0,0,1,9.930356979370117,0)" opacity="1" style="display: block;"><g transform="matrix(1.333299994468689,0,0,1.333299994468689,0,0)" opacity="1" style="display: block;"><g opacity="1" transform="matrix(1,0,0,1,0,0)"><g opacity="1" transform="matrix(1,0,0,1,0,0)"><path fill="rgb(0,0,0)" fill-opacity="1" d=" M0.20000000298023224,34.04999923706055 C6.659999847412109,31.209999084472656 11.199999809265137,24.65999984741211 11.199999809265137,17.030000686645508 C11.199999809265137,9.390000343322754 6.659999847412109,2.8399999141693115 0.20000000298023224,0 C0.20000000298023224,0 0.20000000298023224,34.04999923706055 0.20000000298023224,34.04999923706055z"/></g></g></g><g transform="matrix(1,0,0,1,0,0)" opacity="1" style="display: block;"><path fill="rgb(0,0,0)" fill-opacity="0" d=" M15,0 C15,0 0,0 0,0 C0,0 0,46 0,46 C0,46 15,46 15,46 C15,46 15,0 15,0z"/></g></g><g clip-path="url(#__lottie_element_11551)" transform="matrix(1,0,0,1,-4.069643020629883,0)" opacity="1" style="display: block;"><g transform="matrix(1.333299994468689,0,0,1.333299994468689,0,0)" opacity="1" style="display: block;"><g opacity="1" transform="matrix(1,0,0,1,0,0)"><g opacity="1" transform="matrix(1,0,0,1,0,0)"><g opacity="1" transform="matrix(1,0,0,1,0,0)"><path fill="rgb(0,0,0)" fill-opacity="1" d=" M0,0 C6.460000038146973,2.8399999141693115 10.989999771118164,9.399999618530273 10.989999771118164,17.030000686645508 C10.989999771118164,24.65999984741211 6.460000038146973,31.209999084472656 0,34.04999923706055 C0,34.04999923706055 0,0 0,0z"/></g></g></g></g><g transform="matrix(1,0,0,1,0,0)" opacity="1" style="display: block;"><path fill="rgb(0,0,0)" fill-opacity="0" d=" M15,0 C15,0 0,0 0,0 C0,0 0,46 0,46 C0,46 15,46 15,46 C15,46 15,0 15,0z"/></g></g></g></svg>